HIERARCHY
ROOT Hips
{
	OFFSET -0.001795 -0.223333 0.028219
	CHANNELS 6 Xposition Yposition Zposition Zrotation Yrotation Xrotation 
	JOINT LeftUpLeg
	{
		OFFSET 0.069520 -0.091406 -0.006815
		CHANNELS 3 Zrotation Yrotation Xrotation
		JOINT LeftLeg
		{
			OFFSET 0.034277 -0.375199 -0.004496
			CHANNELS 3 Zrotation Yrotation Xrotation
			JOINT LeftFoot
			{
				OFFSET -0.013596 -0.397961 -0.043693
				CHANNELS 3 Zrotation Yrotation Xrotation
				JOINT LeftToe
				{
					OFFSET 0.026358 -0.055791 0.119288
					CHANNELS 3 Zrotation Yrotation Xrotation
					End Site
					{
						OFFSET 0.000000 0.000000 0.000000
					}
				}
			}
		}
	}
	JOINT RightUpLeg
	{
		OFFSET -0.067670 -0.090522 -0.004320
		CHANNELS 3 Zrotation Yrotation Xrotation
		JOINT RightLeg
		{
			OFFSET -0.038290 -0.382569 -0.008850
			CHANNELS 3 Zrotation Yrotation Xrotation
			JOINT RightFoot
			{
				OFFSET 0.015774 -0.398415 -0.042312
				CHANNELS 3 Zrotation Yrotation Xrotation
				JOINT RightToe
				{
					OFFSET -0.025372 -0.048144 0.123348
					CHANNELS 3 Zrotation Yrotation Xrotation
					End Site
					{
						OFFSET 0.000000 0.000000 0.000000
					}
				}
			}
		}
	}
	JOINT Spine
	{
		OFFSET -0.002533 0.108963 -0.026696
		CHANNELS 3 Zrotation Yrotation Xrotation
		JOINT Spine1
		{
			OFFSET 0.005487 0.135180 0.001092
			CHANNELS 3 Zrotation Yrotation Xrotation
			JOINT Spine2
			{
				OFFSET 0.001457 0.052922 0.025425
				CHANNELS 3 Zrotation Yrotation Xrotation
				JOINT Neck
				{
					OFFSET -0.002778 0.213870 -0.042857
					CHANNELS 3 Zrotation Yrotation Xrotation
					JOINT Head
					{
						OFFSET 0.005152 0.064970 0.051349
						CHANNELS 3 Zrotation Yrotation Xrotation
						End Site
						{
							OFFSET 0.000000 0.000000 0.000000
						}
					}
				}
				JOINT LeftShoulder
				{
					OFFSET 0.078845 0.121749 -0.034090
					CHANNELS 3 Zrotation Yrotation Xrotation
					JOINT LeftArm
					{
						OFFSET 0.090977 0.030469 -0.008868
						CHANNELS 3 Zrotation Yrotation Xrotation
						JOINT LeftForeArm
						{
							OFFSET 0.259612 -0.012772 -0.027456
							CHANNELS 3 Zrotation Yrotation Xrotation
							JOINT LeftHand
							{
								OFFSET 0.249234 0.008986 -0.001171
								CHANNELS 3 Zrotation Yrotation Xrotation
								End Site
								{
									OFFSET 0.000000 0.000000 0.000000
								}
							}
						}
					}
				}
				JOINT RightShoulder
				{
					OFFSET -0.081759 0.118833 -0.038615
					CHANNELS 3 Zrotation Yrotation Xrotation
					JOINT RightArm
					{
						OFFSET -0.096012 0.032551 -0.009143
						CHANNELS 3 Zrotation Yrotation Xrotation
						JOINT RightForeArm
						{
							OFFSET -0.253742 -0.013329 -0.021401
							CHANNELS 3 Zrotation Yrotation Xrotation
							JOINT RightHand
							{
								OFFSET -0.255298 0.007772 -0.005559
								CHANNELS 3 Zrotation Yrotation Xrotation
								End Site
								{
									OFFSET 0.000000 0.000000 0.000000
								}
							}
						}
					}
				}
			}
		}
	}
}
MOTION
Frames: 14
Frame Time: 0.050000
0.000000 0.943086 0.000000 -0.347001 1.310630 13.621383 7.112698 -0.768796 -14.587657 -5.188814 0.534758 0.520464 14.865928 26.064946 27.171959 0.000000 0.000000 0.000000 -8.752311 0.908614 -21.535950 5.232767 -0.616650 7.819590 -7.107412 -18.344186 19.775916 0.000000 0.000000 0.000000 7.150558 -2.733665 21.476199 -4.451339 1.712448 -16.700709 -3.525305 3.229702 25.229466 14.446212 -6.866414 -22.705787 0.000000 0.000000 0.000000 -4.359898 -30.357521 11.502471 -31.519462 -45.364100 5.652550 29.327257 -32.110581 -7.043798 0.000000 0.000000 0.000000 14.577686 17.760445 9.166880 37.457597 54.746402 11.663767 -22.764252 26.608164 -3.416623 0.000000 0.000000 0.000000 
-0.000096 0.942804 0.001856 -0.498007 1.458492 14.243725 7.630833 -0.751000 -14.827386 -5.718920 0.578306 -0.099322 14.830201 26.045013 27.173150 0.000000 0.000000 0.000000 -9.709353 0.792975 -21.899951 7.140731 -0.944771 7.418008 -7.205327 -18.477085 20.103154 0.000000 0.000000 0.000000 7.091648 -2.564599 19.796841 -3.369270 1.397881 -17.012411 -4.014716 3.921644 26.985176 15.748411 -7.547260 -23.430944 0.000000 0.000000 0.000000 -6.552568 -29.266267 11.454924 -29.925556 -45.641369 4.964303 29.722844 -34.014931 -7.625278 0.000000 0.000000 0.000000 14.712541 16.442052 8.692372 35.272886 57.346831 11.467855 -22.747244 26.939248 -3.445357 0.000000 0.000000 0.000000 
-0.000263 0.942919 0.003275 -0.586615 1.515197 14.248998 7.835897 -0.743829 -15.133393 -5.869556 0.604719 0.571385 14.828208 26.052981 27.163066 0.000000 0.000000 0.000000 -9.464182 0.826461 -21.962352 6.465224 -0.835103 7.701767 -6.507688 -17.392107 20.218787 0.000000 0.000000 0.000000 7.190435 -2.529895 19.245640 -3.461848 1.423939 -16.963440 -4.465312 3.834891 27.190172 14.568680 -7.051767 -22.410331 0.000000 0.000000 0.000000 -5.820281 -28.595381 11.023848 -28.975983 -46.869099 4.924070 28.991371 -32.790558 -7.122602 0.000000 0.000000 0.000000 14.812911 16.142501 8.542111 31.749968 58.780135 10.161376 -21.364098 26.600782 -3.171094 0.000000 0.000000 0.000000 
-0.000562 0.943452 0.004543 -0.673830 1.602520 14.270003 8.143448 -0.725468 -15.249658 -6.180894 0.642359 0.840227 14.757170 25.968253 27.297487 0.000000 0.000000 0.000000 -9.762898 0.780667 -21.931276 6.756429 -0.888106 7.684418 -5.829225 -16.346276 20.733057 0.000000 0.000000 0.000000 7.711381 -2.577669 18.595991 -4.581560 1.756105 -16.139454 -4.042889 3.810409 27.436177 14.793501 -7.130621 -22.682457 0.000000 0.000000 0.000000 -4.277196 -28.490428 10.664544 -29.517287 -46.775558 5.073209 30.477409 -33.842313 -7.841803 0.000000 0.000000 0.000000 12.516933 14.719362 7.418859 32.560852 59.885519 11.086115 -21.997823 27.306185 -3.399863 0.000000 0.000000 0.000000 
-0.000828 0.943919 0.005690 -0.546578 1.936790 14.082550 7.932555 -0.744638 -14.971447 -5.984772 0.613968 0.743889 14.481268 25.698328 27.230503 0.000000 0.000000 0.000000 -9.802221 0.747468 -21.428445 6.366457 -0.817676 7.211504 -5.574947 -15.934195 21.448540 0.000000 0.000000 0.000000 7.547320 -2.521892 18.384461 -4.459527 1.727870 -16.250351 -4.418467 3.892823 28.041146 14.538516 -6.670298 -23.801105 0.000000 0.000000 0.000000 -3.532102 -28.581683 10.500617 -29.441898 -47.133930 5.081312 31.534993 -34.150227 -8.284576 0.000000 0.000000 0.000000 11.538702 14.639185 7.271039 31.788953 60.201045 10.838759 -23.783442 27.237539 -3.762824 0.000000 0.000000 0.000000 
-0.001082 0.944605 0.006415 -0.648956 2.316891 14.176666 8.013400 -0.758465 -15.285692 -5.818622 0.596432 1.073499 14.238082 25.471345 27.249955 0.000000 0.000000 0.000000 -9.732626 0.738149 -21.682435 6.358646 -0.826413 7.255339 -5.743081 -16.214336 22.892935 0.000000 0.000000 0.000000 7.919283 -2.578355 18.012823 -4.928832 1.867627 -16.233891 -4.117674 3.884397 28.335414 14.529413 -6.527185 -24.372815 0.000000 0.000000 0.000000 -3.064569 -28.989931 10.537348 -29.078746 -46.718913 4.832182 32.354394 -35.528700 -8.951692 0.000000 0.000000 0.000000 11.018032 14.216393 7.012940 30.482519 59.799190 10.031798 -25.341577 28.287640 -4.264043 0.000000 0.000000 0.000000 
-0.001259 0.944557 0.006914 -0.494764 2.693751 14.145710 7.959952 -0.771640 -15.153120 -5.936264 0.598977 0.842959 13.978911 25.234403 27.081771 0.000000 0.000000 0.000000 -9.793923 0.703487 -21.569948 6.250671 -0.813286 7.084382 -6.140824 -16.766675 23.553143 0.000000 0.000000 0.000000 8.012349 -2.581076 17.782048 -4.858520 1.860397 -16.088312 -4.433900 3.797678 28.263094 14.302358 -6.244891 -24.850344 0.000000 0.000000 0.000000 -3.073297 -28.389662 10.297162 -29.431799 -46.671349 4.922755 33.478628 -36.979196 -9.738548 0.000000 0.000000 0.000000 10.533794 13.848059 6.781309 31.030021 59.527313 10.280147 -27.673794 29.438785 -4.961869 0.000000 0.000000 0.000000 
-0.001393 0.944642 0.007234 -0.543059 2.927907 14.195072 7.914494 -0.781976 -15.103782 -5.705367 0.567841 0.630356 13.835661 25.106352 26.985413 0.000000 0.000000 0.000000 -9.698596 0.705386 -21.599040 6.401472 -0.841734 6.974162 -6.717355 -17.587872 24.049665 0.000000 0.000000 0.000000 8.443248 -2.623649 17.280406 -5.146428 1.949010 -15.914967 -4.281287 3.998204 28.333443 14.509362 -6.447570 -24.391852 0.000000 0.000000 0.000000 -3.160244 -28.137820 10.187467 -29.620820 -46.312481 4.848472 35.568140 -39.229589 -11.183174 0.000000 0.000000 0.000000 10.285597 13.095990 6.439441 31.243353 58.929784 10.211918 -29.674849 31.045727 -5.710423 0.000000 0.000000 0.000000 
-0.001527 0.944589 0.007575 -0.492002 3.200585 14.353390 7.980424 -0.787071 -15.059942 -5.842076 0.570415 0.201835 13.660664 24.944670 26.908905 0.000000 0.000000 0.000000 -9.805707 0.675945 -21.594648 6.566551 -0.870754 6.731732 -7.000931 -17.954043 24.297759 0.000000 0.000000 0.000000 8.720550 -2.646787 16.888193 -5.020324 1.912807 -16.017590 -4.283834 4.204900 28.450702 14.827268 -6.604216 -24.366035 0.000000 0.000000 0.000000 -2.901209 -27.498015 9.869414 -29.975565 -46.139307 4.854441 38.424498 -41.392350 -13.023604 0.000000 0.000000 0.000000 9.889091 12.352425 6.085211 31.522392 58.210502 10.158800 -31.763287 32.707280 -6.556293 0.000000 0.000000 0.000000 
-0.001700 0.944351 0.008071 -0.431867 3.437897 14.502382 7.754012 -0.818246 -15.203433 -5.454893 0.536585 0.823479 12.625451 23.930808 24.751238 0.000000 0.000000 0.000000 -9.917814 0.648506 -21.607519 6.675441 -0.893893 6.679212 -7.085246 -18.030113 24.127853 0.000000 0.000000 0.000000 8.921681 -2.641236 16.422053 -4.965018 1.900417 -15.982114 -4.078307 4.274923 28.527506 15.033435 -6.595282 -24.798978 0.000000 0.000000 0.000000 -2.497901 -26.678188 9.482553 -30.218660 -46.290056 4.920150 41.889930 -43.869226 -15.390394 0.000000 0.000000 0.000000 8.551848 11.469174 5.511580 32.633647 57.983142 10.750649 -34.794511 34.766844 -7.826468 0.000000 0.000000 0.000000 
-0.001943 0.944502 0.008765 -0.494646 3.595082 14.493815 7.713866 -0.820032 -15.034946 -5.121944 0.497944 0.569858 12.361229 23.635323 24.760134 0.000000 0.000000 0.000000 -9.968943 0.632153 -21.356381 6.729138 -0.900515 6.443183 -6.707692 -17.450534 24.077867 0.000000 0.000000 0.000000 9.153467 -2.641140 16.018787 -4.863996 1.872990 -15.931363 -4.050224 4.390183 28.457236 15.363344 -6.835519 -24.545294 0.000000 0.000000 0.000000 -2.075966 -26.054256 9.168770 -30.487617 -46.104543 4.922200 44.796244 -46.355694 -17.746485 0.000000 0.000000 0.000000 8.320740 10.793453 5.200021 33.088616 57.880325 10.987304 -37.421924 36.650380 -9.058812 0.000000 0.000000 0.000000 
-0.002155 0.944361 0.009597 -0.500569 3.869621 14.528266 7.754736 -0.823746 -14.964584 -5.101044 0.490555 0.391586 12.207968 23.490134 24.616828 0.000000 0.000000 0.000000 -10.007307 0.611905 -21.040308 6.714220 -0.892402 5.995184 -6.577123 -17.211065 24.179755 0.000000 0.000000 0.000000 9.280185 -2.604283 15.486175 -4.726498 1.840810 -15.789946 -3.876573 4.272327 28.370974 15.434332 -7.029835 -23.914679 0.000000 0.000000 0.000000 -1.630385 -25.184570 8.785781 -30.660917 -46.103257 4.954705 47.017538 -48.190500 -19.639617 0.000000 0.000000 0.000000 7.792874 10.215472 4.872472 33.466880 57.798682 11.198388 -39.843163 38.102175 -10.218826 0.000000 0.000000 0.000000 
-0.002359 0.944483 0.010464 -0.482195 4.098086 14.542462 7.667542 -0.829740 -14.732710 -4.918156 0.466519 -0.009886 12.043145 23.320074 24.565903 0.000000 0.000000 0.000000 -9.997873 0.601474 -20.603065 6.504973 -0.846936 5.392107 -6.270573 -16.721786 24.276775 0.000000 0.000000 0.000000 9.446496 -2.574485 14.975098 -4.512711 1.780772 -15.881179 -3.721121 4.167803 28.267974 15.772177 -7.380205 -23.395618 0.000000 0.000000 0.000000 -1.509730 -24.737054 8.606237 -30.821572 -45.535360 4.859494 48.383902 -50.179451 -21.288696 0.000000 0.000000 0.000000 7.730748 9.649624 4.613613 33.511668 57.566597 11.147846 -41.567344 39.487410 -11.215906 0.000000 0.000000 0.000000 
-0.002533 0.944439 0.011214 -0.373383 4.212058 14.479252 7.682774 -0.826210 -14.569967 -5.114781 0.482503 -0.119807 11.953215 23.224578 24.529490 0.000000 0.000000 0.000000 -10.043291 0.587376 -20.174588 6.446179 -0.828868 4.937543 -6.340499 -16.792292 24.130801 0.000000 0.000000 0.000000 9.502862 -2.492682 14.310278 -4.229956 1.707509 -15.557288 -3.623547 4.049562 28.069675 15.932062 -7.583120 -23.038851 0.000000 0.000000 0.000000 -1.490128 -24.149926 8.394224 -30.918832 -45.193734 4.814203 49.175734 -51.611282 -22.419518 0.000000 0.000000 0.000000 7.455934 9.234451 4.386840 33.668765 57.505315 11.230033 -42.996899 40.309166 -11.977794 0.000000 0.000000 0.000000 
